<mxfile host="65bd71144e">
    <diagram id="mIBa5XVGkMHiPpfwr7mG" name="Page-1">
        <mxGraphModel dx="1917" dy="1879" grid="1" gridSize="10" guides="1" tooltips="1" connect="1" arrows="1" fold="1" page="1" pageScale="1" pageWidth="850" pageHeight="1100" math="0" shadow="0">
            <root>
                <mxCell id="0"/>
                <mxCell id="1" parent="0"/>
                <mxCell id="20" value="GenAI" style="shape=folder;fontStyle=1;spacingTop=8;tabWidth=40;tabHeight=14;tabPosition=left;html=1;whiteSpace=wrap;labelPosition=center;verticalLabelPosition=middle;align=left;verticalAlign=top;spacing=4;shadow=0;" parent="1" vertex="1">
                    <mxGeometry x="260" y="430" width="540" height="180" as="geometry"/>
                </mxCell>
                <mxCell id="45" value="REST API" style="edgeStyle=none;html=1;entryX=0;entryY=0;entryDx=285;entryDy=14;exitX=0.5;exitY=1;exitDx=0;exitDy=0;exitPerimeter=0;entryPerimeter=0;" parent="1" source="40" target="11" edge="1">
                    <mxGeometry relative="1" as="geometry">
                        <mxPoint x="300" y="90" as="sourcePoint"/>
                    </mxGeometry>
                </mxCell>
                <mxCell id="28" value="AI-Powered Search" style="edgeStyle=none;html=1;exitX=0.75;exitY=1;exitDx=0;exitDy=0;entryX=0;entryY=0;entryDx=225;entryDy=14;entryPerimeter=0;exitPerimeter=0;" parent="1" source="11" target="20" edge="1">
                    <mxGeometry relative="1" as="geometry">
                        <mxPoint x="490" y="340" as="targetPoint"/>
                        <mxPoint x="475" y="283.3333333333335" as="sourcePoint"/>
                    </mxGeometry>
                </mxCell>
                <mxCell id="48" value="monitors" style="edgeStyle=none;html=1;exitX=1;exitY=0.25;exitDx=0;exitDy=0;entryX=0;entryY=0;entryDx=0;entryDy=72;entryPerimeter=0;" parent="1" target="40" edge="1">
                    <mxGeometry relative="1" as="geometry">
                        <mxPoint x="-152.6400000000001" y="160" as="sourcePoint"/>
                    </mxGeometry>
                </mxCell>
                <mxCell id="50" value="monitors" style="edgeStyle=none;html=1;exitX=1;exitY=0.75;exitDx=0;exitDy=0;entryX=0;entryY=0;entryDx=0;entryDy=97;entryPerimeter=0;" parent="1" target="11" edge="1">
                    <mxGeometry relative="1" as="geometry">
                        <mxPoint x="-152.6400000000001" y="200" as="sourcePoint"/>
                    </mxGeometry>
                </mxCell>
                <mxCell id="51" value="monitors" style="edgeStyle=none;html=1;exitX=0.5;exitY=1;exitDx=0;exitDy=0;entryX=0;entryY=0;entryDx=20;entryDy=0;entryPerimeter=0;" parent="1" target="34" edge="1">
                    <mxGeometry relative="1" as="geometry">
                        <mxPoint x="-70" y="450" as="targetPoint"/>
                        <mxPoint x="-216.31999999999994" y="220" as="sourcePoint"/>
                    </mxGeometry>
                </mxCell>
                <mxCell id="52" value="monitors" style="edgeStyle=orthogonalEdgeStyle;html=1;entryX=0.5;entryY=1;entryDx=0;entryDy=0;entryPerimeter=0;exitX=0.25;exitY=1;exitDx=0;exitDy=0;" parent="1" target="20" edge="1">
                    <mxGeometry relative="1" as="geometry">
                        <mxPoint x="-240" y="660" as="targetPoint"/>
                        <Array as="points">
                            <mxPoint x="-250" y="220"/>
                            <mxPoint x="-250" y="650"/>
                            <mxPoint x="530" y="650"/>
                        </Array>
                        <mxPoint x="-248.16000000000008" y="220" as="sourcePoint"/>
                    </mxGeometry>
                </mxCell>
                <mxCell id="29" value="Infrastructure" style="shape=folder;fontStyle=1;spacingTop=8;tabWidth=40;tabHeight=14;tabPosition=left;html=1;whiteSpace=wrap;labelPosition=center;verticalLabelPosition=middle;align=left;verticalAlign=top;spacing=4;shadow=0;" parent="1" vertex="1">
                    <mxGeometry x="-430" y="20" width="310" height="230" as="geometry"/>
                </mxCell>
                <mxCell id="53" value="&lt;p&gt;&lt;span style=&quot;background-color: transparent;&quot;&gt;&lt;b&gt;Grafana Container&lt;/b&gt;&lt;/span&gt;&lt;/p&gt;" style="verticalAlign=top;align=center;spacingTop=8;spacingLeft=2;spacingRight=12;shape=cube;size=10;direction=south;fontStyle=4;html=1;whiteSpace=wrap;" vertex="1" parent="1">
                    <mxGeometry x="-300" y="60" width="160" height="80" as="geometry"/>
                </mxCell>
                <mxCell id="54" value="&lt;p&gt;&lt;span style=&quot;background-color: transparent;&quot;&gt;&lt;b&gt;Prometheus Container&lt;/b&gt;&lt;/span&gt;&lt;/p&gt;" style="verticalAlign=top;align=center;spacingTop=8;spacingLeft=2;spacingRight=12;shape=cube;size=10;direction=south;fontStyle=4;html=1;whiteSpace=wrap;" vertex="1" parent="1">
                    <mxGeometry x="-300" y="150" width="160" height="80" as="geometry"/>
                </mxCell>
                <mxCell id="55" value="Grafana" style="shape=module;align=left;spacingLeft=20;align=center;verticalAlign=top;whiteSpace=wrap;html=1;" vertex="1" parent="1">
                    <mxGeometry x="-420" y="80" width="100" height="50" as="geometry"/>
                </mxCell>
                <mxCell id="56" value="Prometheus" style="shape=module;align=left;spacingLeft=20;align=center;verticalAlign=top;whiteSpace=wrap;html=1;" vertex="1" parent="1">
                    <mxGeometry x="-420" y="165" width="100" height="50" as="geometry"/>
                </mxCell>
                <mxCell id="57" style="edgeStyle=none;html=1;exitX=1;exitY=0.5;exitDx=0;exitDy=0;entryX=0;entryY=0;entryDx=45;entryDy=160;entryPerimeter=0;dashed=1;" edge="1" parent="1" source="56" target="54">
                    <mxGeometry relative="1" as="geometry"/>
                </mxCell>
                <mxCell id="58" style="edgeStyle=none;html=1;exitX=1;exitY=0.5;exitDx=0;exitDy=0;entryX=0;entryY=0;entryDx=45;entryDy=160;entryPerimeter=0;dashed=1;" edge="1" parent="1" source="55" target="53">
                    <mxGeometry relative="1" as="geometry"/>
                </mxCell>
                <mxCell id="11" value="Backend Server" style="shape=folder;fontStyle=1;spacingTop=8;tabWidth=40;tabHeight=14;tabPosition=left;html=1;whiteSpace=wrap;labelPosition=center;verticalLabelPosition=middle;align=left;verticalAlign=top;spacing=4;shadow=0;" parent="1" vertex="1">
                    <mxGeometry x="50" y="110" width="530" height="240" as="geometry"/>
                </mxCell>
                <mxCell id="59" value="Wiki Service" style="shape=module;align=left;spacingLeft=20;align=center;verticalAlign=top;whiteSpace=wrap;html=1;" vertex="1" parent="1">
                    <mxGeometry x="105" y="270" width="100" height="50" as="geometry"/>
                </mxCell>
                <mxCell id="64" style="edgeStyle=none;html=1;exitX=0.5;exitY=0;exitDx=0;exitDy=0;dashed=1;" edge="1" parent="1" source="60">
                    <mxGeometry relative="1" as="geometry">
                        <mxPoint x="300" y="230" as="targetPoint"/>
                    </mxGeometry>
                </mxCell>
                <mxCell id="60" value="User Service" style="shape=module;align=left;spacingLeft=20;align=center;verticalAlign=top;whiteSpace=wrap;html=1;" vertex="1" parent="1">
                    <mxGeometry x="250" y="270" width="100" height="50" as="geometry"/>
                </mxCell>
                <mxCell id="61" value="Search Service" style="shape=module;align=left;spacingLeft=20;align=center;verticalAlign=top;whiteSpace=wrap;html=1;" vertex="1" parent="1">
                    <mxGeometry x="410" y="270" width="100" height="50" as="geometry"/>
                </mxCell>
                <mxCell id="62" value="&lt;p&gt;&lt;span style=&quot;background-color: transparent;&quot;&gt;&lt;b&gt;Backend Container&lt;/b&gt;&lt;/span&gt;&lt;/p&gt;" style="verticalAlign=top;align=center;spacingTop=8;spacingLeft=2;spacingRight=12;shape=cube;size=10;direction=south;fontStyle=4;html=1;whiteSpace=wrap;" vertex="1" parent="1">
                    <mxGeometry x="230" y="150" width="160" height="80" as="geometry"/>
                </mxCell>
                <mxCell id="63" style="edgeStyle=none;html=1;exitX=0.5;exitY=0;exitDx=0;exitDy=0;entryX=1;entryY=1;entryDx=0;entryDy=0;entryPerimeter=0;dashed=1;" edge="1" parent="1" source="59" target="62">
                    <mxGeometry relative="1" as="geometry"/>
                </mxCell>
                <mxCell id="65" style="edgeStyle=none;html=1;exitX=0.5;exitY=0;exitDx=0;exitDy=0;entryX=0;entryY=0;entryDx=80;entryDy=10;entryPerimeter=0;dashed=1;" edge="1" parent="1" source="61" target="62">
                    <mxGeometry relative="1" as="geometry"/>
                </mxCell>
                <mxCell id="67" value="REST API" style="edgeStyle=none;html=1;exitX=0.25;exitY=1;exitDx=0;exitDy=0;exitPerimeter=0;entryX=0;entryY=0;entryDx=120;entryDy=14;entryPerimeter=0;" edge="1" parent="1" source="11" target="34">
                    <mxGeometry relative="1" as="geometry"/>
                </mxCell>
                <mxCell id="34" value="Database" style="shape=folder;fontStyle=1;spacingTop=8;tabWidth=40;tabHeight=14;tabPosition=left;html=1;whiteSpace=wrap;labelPosition=center;verticalLabelPosition=middle;align=left;verticalAlign=top;spacing=4;shadow=0;" parent="1" vertex="1">
                    <mxGeometry x="-160" y="440" width="270" height="190" as="geometry"/>
                </mxCell>
                <mxCell id="68" value="&lt;p&gt;&lt;span style=&quot;background-color: transparent;&quot;&gt;&lt;b&gt;Database Container&lt;/b&gt;&lt;/span&gt;&lt;/p&gt;" style="verticalAlign=top;align=center;spacingTop=8;spacingLeft=2;spacingRight=12;shape=cube;size=10;direction=south;fontStyle=4;html=1;whiteSpace=wrap;" vertex="1" parent="1">
                    <mxGeometry x="-97.5" y="490" width="145" height="60" as="geometry"/>
                </mxCell>
                <mxCell id="69" value="MySQL" style="shape=module;align=left;spacingLeft=20;align=center;verticalAlign=top;whiteSpace=wrap;html=1;" vertex="1" parent="1">
                    <mxGeometry x="-80" y="570" width="100" height="50" as="geometry"/>
                </mxCell>
                <mxCell id="70" style="edgeStyle=none;html=1;exitX=0.5;exitY=0;exitDx=0;exitDy=0;entryX=0;entryY=0;entryDx=60;entryDy=77.5;entryPerimeter=0;dashed=1;" edge="1" parent="1" source="69" target="68">
                    <mxGeometry relative="1" as="geometry"/>
                </mxCell>
                <mxCell id="71" value="&lt;p&gt;&lt;span style=&quot;background-color: transparent;&quot;&gt;&lt;b&gt;Vector Database Container&lt;/b&gt;&lt;/span&gt;&lt;/p&gt;" style="verticalAlign=top;align=center;spacingTop=8;spacingLeft=2;spacingRight=12;shape=cube;size=10;direction=south;fontStyle=4;html=1;whiteSpace=wrap;" vertex="1" parent="1">
                    <mxGeometry x="287.5" y="470" width="145" height="60" as="geometry"/>
                </mxCell>
                <mxCell id="72" value="&lt;p&gt;&lt;span style=&quot;background-color: transparent;&quot;&gt;&lt;b&gt;AI Server Container&lt;/b&gt;&lt;/span&gt;&lt;/p&gt;" style="verticalAlign=top;align=center;spacingTop=8;spacingLeft=2;spacingRight=12;shape=cube;size=10;direction=south;fontStyle=4;html=1;whiteSpace=wrap;" vertex="1" parent="1">
                    <mxGeometry x="457.5" y="470" width="145" height="60" as="geometry"/>
                </mxCell>
                <mxCell id="73" value="Weaviate" style="shape=module;align=left;spacingLeft=20;align=center;verticalAlign=top;whiteSpace=wrap;html=1;" vertex="1" parent="1">
                    <mxGeometry x="310" y="550" width="100" height="50" as="geometry"/>
                </mxCell>
                <mxCell id="74" style="edgeStyle=none;html=1;exitX=0.5;exitY=0;exitDx=0;exitDy=0;entryX=0;entryY=0;entryDx=60;entryDy=77.5;entryPerimeter=0;dashed=1;" edge="1" parent="1" source="73" target="71">
                    <mxGeometry relative="1" as="geometry"/>
                </mxCell>
                <mxCell id="75" value="LLaMA" style="shape=module;align=left;spacingLeft=20;align=center;verticalAlign=top;whiteSpace=wrap;html=1;" vertex="1" parent="1">
                    <mxGeometry x="640" y="550" width="100" height="50" as="geometry"/>
                </mxCell>
                <mxCell id="76" style="edgeStyle=none;html=1;exitX=0.5;exitY=0;exitDx=0;exitDy=0;entryX=0;entryY=0;entryDx=60;entryDy=77.5;entryPerimeter=0;dashed=1;" edge="1" parent="1" source="75" target="79">
                    <mxGeometry relative="1" as="geometry"/>
                </mxCell>
                <mxCell id="79" value="&lt;p&gt;&lt;span style=&quot;background-color: transparent;&quot;&gt;&lt;b&gt;Local AI Container&lt;/b&gt;&lt;/span&gt;&lt;/p&gt;" style="verticalAlign=top;align=center;spacingTop=8;spacingLeft=2;spacingRight=12;shape=cube;size=10;direction=south;fontStyle=4;html=1;whiteSpace=wrap;" vertex="1" parent="1">
                    <mxGeometry x="630" y="470" width="145" height="60" as="geometry"/>
                </mxCell>
                <mxCell id="80" value="AI Service" style="shape=module;align=left;spacingLeft=20;align=center;verticalAlign=top;whiteSpace=wrap;html=1;" vertex="1" parent="1">
                    <mxGeometry x="480" y="550" width="100" height="50" as="geometry"/>
                </mxCell>
                <mxCell id="81" style="edgeStyle=none;html=1;exitX=0.5;exitY=0;exitDx=0;exitDy=0;entryX=0;entryY=0;entryDx=60;entryDy=77.5;entryPerimeter=0;dashed=1;" edge="1" parent="1" source="80" target="72">
                    <mxGeometry relative="1" as="geometry"/>
                </mxCell>
                <mxCell id="40" value="Frontend Server" style="shape=folder;fontStyle=1;spacingTop=8;tabWidth=40;tabHeight=14;tabPosition=left;html=1;whiteSpace=wrap;labelPosition=center;verticalLabelPosition=middle;align=left;verticalAlign=top;spacing=4;shadow=0;" parent="1" vertex="1">
                    <mxGeometry x="180" y="-90" width="350" height="140" as="geometry"/>
                </mxCell>
                <mxCell id="84" value="&lt;p&gt;&lt;span style=&quot;background-color: transparent;&quot;&gt;&lt;b&gt;Frontend Container&lt;/b&gt;&lt;/span&gt;&lt;/p&gt;" style="verticalAlign=top;align=center;spacingTop=8;spacingLeft=2;spacingRight=12;shape=cube;size=10;direction=south;fontStyle=4;html=1;whiteSpace=wrap;" vertex="1" parent="1">
                    <mxGeometry x="365" y="-40" width="145" height="60" as="geometry"/>
                </mxCell>
                <mxCell id="85" value="Frontend Service" style="shape=module;align=left;spacingLeft=20;align=center;verticalAlign=top;whiteSpace=wrap;html=1;" vertex="1" parent="1">
                    <mxGeometry x="205" y="-30" width="100" height="50" as="geometry"/>
                </mxCell>
                <mxCell id="86" style="edgeStyle=none;html=1;exitX=1;exitY=0.5;exitDx=0;exitDy=0;entryX=0;entryY=0;entryDx=35;entryDy=145;entryPerimeter=0;dashed=1;" edge="1" parent="1" source="85" target="84">
                    <mxGeometry relative="1" as="geometry"/>
                </mxCell>
            </root>
        </mxGraphModel>
    </diagram>
</mxfile>